<?xml version="1.0" encoding="utf-8"?>
<!-- Generator: Adobe Illustrator 24.0.0, SVG Export Plug-In . SVG Version: 6.00 Build 0)  -->
<svg version="1.1" id="Capa_1" xmlns="http://www.w3.org/2000/svg" xmlns:xlink="http://www.w3.org/1999/xlink" x="0px" y="0px"
	 viewBox="0 0 500 600" style="enable-background:new 0 0 500 600;" xml:space="preserve">
<style type="text/css">
	.st0{fill-rule:evenodd;clip-rule:evenodd;fill:#444243;}
	.st1{fill-rule:evenodd;clip-rule:evenodd;fill:#349B8A;}
</style>
<g>
	<path class="st0" d="M59.33,442.8l-2.16-6.48l-2.7,6.48H59.33z M56.08,433.08h2.16l7.02,15.66h-3.24l-1.62-3.78h-6.48l-1.62,3.78
		h-3.24L56.08,433.08z"/>
	<path class="st0" d="M74.99,436.32c-0.54-0.54-2.16-1.62-3.24-1.62c-1.08,0-2.7,1.08-2.7,2.16c0,1.62,1.08,2.16,3.24,2.7
		c1.62,0.54,4.32,1.62,4.32,4.32c0,3.78-2.7,5.4-5.4,5.4c-2.16,0-4.32-1.08-5.4-2.16l1.62-2.16c1.08,1.08,2.16,1.62,3.78,1.62
		c1.08,0,2.7-0.54,2.7-2.16s-1.62-2.16-3.78-2.7c-1.62-0.54-3.78-1.62-3.78-4.32c0-3.24,2.7-4.86,5.94-4.86
		c1.08,0,3.24,0.54,4.32,1.62L74.99,436.32z"/>
	<path class="st0" d="M87.41,446.58c3.24,0,5.4-2.16,5.4-5.94c0-3.24-2.16-5.4-5.4-5.4c-3.24,0-5.4,2.16-5.4,5.4
		C82.01,444.42,84.17,446.58,87.41,446.58z M87.41,432.53c4.86,0,8.1,3.24,8.1,8.1c0,4.86-3.24,8.64-8.1,8.64s-8.64-3.78-8.64-8.64
		C78.77,435.78,82.55,432.53,87.41,432.53z"/>
	<path class="st0" d="M109.56,436.86c-0.54-1.08-2.16-1.62-3.24-1.62c-3.24,0-5.4,2.16-5.4,5.4c0,3.78,2.16,5.94,5.4,5.94
		c1.62,0,2.7-0.54,3.78-1.62l2.16,1.62c-1.62,1.62-3.78,2.7-6.48,2.7c-4.86,0-8.1-3.78-8.1-8.64c0-4.86,3.78-8.1,8.64-8.1
		c2.16,0,4.32,1.08,5.4,2.7L109.56,436.86z"/>
	<polygon class="st0" points="113.88,433.08 116.58,433.08 116.58,448.74 113.88,448.74 	"/>
	<path class="st0" d="M128.47,442.8l-2.16-6.48l-2.7,6.48H128.47z M125.22,433.08h2.16l7.02,15.66h-3.24l-1.62-3.78h-7.02
		l-1.08,3.78h-3.24L125.22,433.08z"/>
	<path class="st0" d="M146.83,436.86c-1.08-1.08-2.16-1.62-3.78-1.62c-3.24,0-5.4,2.16-5.4,5.4c0,3.78,2.16,5.94,5.4,5.94
		c1.62,0,3.24-0.54,3.78-1.62l2.16,1.62c-1.08,1.62-3.24,2.7-5.94,2.7c-4.86,0-8.64-3.78-8.64-8.64c0-4.86,3.78-8.1,8.64-8.1
		c2.16,0,4.86,1.08,5.94,2.7L146.83,436.86z"/>
	<polygon class="st0" points="150.61,433.08 153.85,433.08 153.85,448.74 150.61,448.74 	"/>
	<path class="st0" d="M165.74,428.75h2.7l-2.7,3.24h-2.16L165.74,428.75z M164.66,446.58c3.24,0,5.4-2.16,5.4-5.94
		c0-3.24-2.16-5.4-5.4-5.4s-5.4,2.16-5.4,5.4C159.25,444.42,161.42,446.58,164.66,446.58z M164.66,432.53c4.86,0,8.64,3.24,8.64,8.1
		c0,4.86-3.78,8.64-8.64,8.64s-8.1-3.78-8.1-8.64C156.55,435.78,159.79,432.53,164.66,432.53z"/>
	<polygon class="st0" points="176,433.08 179.78,433.08 186.8,444.96 187.34,444.96 187.34,433.08 190.04,433.08 190.04,448.74 
		186.26,448.74 178.7,436.86 178.7,436.86 178.7,448.74 176,448.74 	"/>
	<path class="st0" d="M206.79,442.8l-2.16-6.48l-2.7,6.48H206.79z M203.55,433.08h2.16l7.02,15.66h-3.24l-1.62-3.78h-6.48
		l-1.62,3.78h-3.24L203.55,433.08z"/>
	<polygon class="st0" points="219.21,433.08 229.48,433.08 229.48,435.24 221.91,435.24 221.91,439.56 228.94,439.56 228.94,442.26 
		221.91,442.26 221.91,448.74 219.21,448.74 	"/>
	<path class="st0" d="M239.2,442.8l-2.16-6.48l-2.7,6.48H239.2z M235.96,433.08h2.16l7.02,15.66h-3.24l-1.62-3.78h-6.48l-1.62,3.78
		h-3.24L235.96,433.08z"/>
	<polygon class="st0" points="244.06,433.08 247.3,433.08 251.62,444.96 251.62,444.96 255.94,433.08 258.64,433.08 252.7,448.74 
		250,448.74 	"/>
	<path class="st0" d="M267.83,446.58c3.24,0,5.4-2.16,5.4-5.94c0-3.24-2.16-5.4-5.4-5.4c-3.24,0-5.4,2.16-5.4,5.4
		C262.43,444.42,264.59,446.58,267.83,446.58z M267.83,432.53c4.86,0,8.64,3.24,8.64,8.1c0,4.86-3.78,8.64-8.64,8.64
		c-4.86,0-8.64-3.78-8.64-8.64C259.18,435.78,262.97,432.53,267.83,432.53z"/>
	<path class="st0" d="M284.03,439.56c1.62,0,3.24,0,3.24-2.16c0-1.62-1.62-2.16-2.7-2.16h-2.7v4.32H284.03z M279.17,433.08h5.4
		c2.7,0,5.94,1.08,5.94,4.32c0,2.16-1.62,3.78-3.78,4.32l4.32,7.02h-3.78l-3.24-6.48h-2.16v6.48h-2.7V433.08z"/>
	<path class="st0" d="M303.48,446.58c3.24,0,6.48-1.62,6.48-5.94c0-4.32-3.24-5.4-6.48-5.4h-2.16v11.34H303.48z M298.62,433.08h5.4
		c4.32,0,8.64,2.16,8.64,7.56c0,5.94-4.32,8.1-8.64,8.1h-5.4V433.08z"/>
	<polygon class="st0" points="315.36,433.08 326.16,433.08 326.16,435.24 318.6,435.24 318.6,439.56 325.62,439.56 325.62,441.72 
		318.6,441.72 318.6,446.04 326.16,446.04 326.16,448.74 315.36,448.74 	"/>
	<path class="st0" d="M339.67,440.1c1.62,0,3.24-0.54,3.24-2.7c0-1.62-1.62-2.16-3.24-2.16h-2.16v4.86H339.67z M334.81,433.08h4.86
		c3.78,0,5.94,1.08,5.94,4.32c0,3.78-2.7,4.86-5.94,4.86h-2.16v6.48h-2.7V433.08z"/>
	<polygon class="st0" points="348.31,433.08 358.57,433.08 358.57,435.24 351.01,435.24 351.01,439.56 358.03,439.56 358.03,441.72 
		351.01,441.72 351.01,446.04 359.11,446.04 359.11,448.74 348.31,448.74 	"/>
	<path class="st0" d="M366.68,439.56c1.62,0,3.78,0,3.78-2.16c0-1.62-2.16-2.16-3.24-2.16h-2.7v4.32H366.68z M361.81,433.08h5.4
		c3.24,0,5.94,1.08,5.94,4.32c0,2.16-1.62,3.78-3.78,4.32l4.32,7.02h-3.24l-3.78-6.48h-2.16v6.48h-2.7V433.08z"/>
	<path class="st0" d="M383.96,436.32c-0.54-0.54-2.16-1.62-3.24-1.62s-2.7,1.08-2.7,2.16c0,1.62,1.08,2.16,3.24,2.7
		c1.62,0.54,4.32,1.62,4.32,4.32c0,3.78-2.7,5.4-5.4,5.4c-2.16,0-4.32-1.08-5.4-2.16l1.62-2.16c1.08,1.08,2.16,1.62,3.78,1.62
		c1.08,0,2.7-0.54,2.7-2.16s-1.62-2.16-3.78-2.7c-1.62-0.54-3.78-1.62-3.78-4.32c0-3.24,2.7-4.86,5.94-4.86
		c1.08,0,3.24,0.54,4.32,1.62L383.96,436.32z"/>
	<path class="st0" d="M396.38,446.58c3.24,0,5.4-2.16,5.4-5.94c0-3.24-2.16-5.4-5.4-5.4c-3.24,0-5.4,2.16-5.4,5.4
		C390.98,444.42,393.14,446.58,396.38,446.58z M396.38,432.53c4.86,0,8.1,3.24,8.1,8.1c0,4.86-3.24,8.64-8.1,8.64
		c-4.86,0-8.64-3.78-8.64-8.64C387.74,435.78,391.52,432.53,396.38,432.53z"/>
	<polygon class="st0" points="407.19,433.08 410.97,433.08 418.53,444.96 418.53,444.96 418.53,433.08 421.23,433.08 421.23,448.74 
		417.45,448.74 410.43,436.86 410.43,436.86 410.43,448.74 407.19,448.74 	"/>
	<path class="st0" d="M433.12,442.8l-2.16-6.48l-2.7,6.48H433.12z M429.87,433.08h2.16l7.02,15.66h-3.24l-1.62-3.78h-7.02
		l-1.08,3.78h-3.24L429.87,433.08z"/>
	<path class="st0" d="M448.24,436.32c-0.54-0.54-1.62-1.62-2.7-1.62c-1.08,0-2.7,1.08-2.7,2.16c0,1.62,1.08,2.16,2.7,2.7
		c2.16,0.54,4.86,1.62,4.86,4.32c0,3.78-2.7,5.4-5.94,5.4c-1.62,0-3.78-1.08-5.4-2.16l2.16-2.16c0.54,1.08,2.16,1.62,3.24,1.62
		c1.62,0,3.24-0.54,3.24-2.16s-1.62-2.16-3.78-2.7c-2.16-0.54-3.78-1.62-3.78-4.32c0-3.24,2.7-4.86,5.4-4.86
		c1.62,0,3.24,0.54,4.86,1.62L448.24,436.32z"/>
	<path class="st0" d="M62.57,463.32c-1.08-1.08-2.7-1.62-3.78-1.62c-3.24,0-5.4,2.7-5.4,5.94s2.16,5.4,5.4,5.4
		c1.62,0,3.24-0.54,3.78-1.62l2.16,1.62c-1.08,1.62-3.24,2.7-5.94,2.7c-4.86,0-8.64-3.24-8.64-8.1c0-5.4,3.78-8.1,8.64-8.1
		c2.16,0,4.32,0.54,5.94,2.16L62.57,463.32z"/>
	<path class="st0" d="M73.91,473.05c3.24,0,5.4-2.16,5.4-5.4s-2.16-5.94-5.4-5.94c-3.24,0-5.4,2.7-5.4,5.94
		S70.67,473.05,73.91,473.05z M73.91,459.54c4.86,0,8.64,2.7,8.64,8.1c0,4.86-3.78,8.1-8.64,8.1s-8.64-3.24-8.64-8.1
		C65.27,462.24,69.05,459.54,73.91,459.54z"/>
	<polygon class="st0" points="85.25,459.54 89.03,459.54 96.06,471.43 96.06,471.43 96.06,459.54 98.76,459.54 98.76,475.21 
		95.52,475.21 87.95,463.32 87.95,463.32 87.95,475.21 85.25,475.21 	"/>
	<path class="st0" d="M113.34,473.05c2.7,0,5.94-1.08,5.94-5.4c0-4.86-3.24-5.4-5.94-5.4h-2.7v10.8H113.34z M107.94,459.54h5.4
		c4.32,0,9.18,2.16,9.18,8.1c0,5.4-4.86,7.56-9.18,7.56h-5.4V459.54z"/>
	<polygon class="st0" points="125.22,459.54 127.93,459.54 127.93,475.21 125.22,475.21 	"/>
	<path class="st0" d="M139.27,462.78c-0.54-0.54-1.62-1.08-2.7-1.08c-1.62,0-2.7,0.54-2.7,2.16s1.08,1.62,2.7,2.16
		c2.16,0.54,4.86,1.62,4.86,4.86c0,3.24-2.7,4.86-5.94,4.86c-2.16,0-4.32-0.54-5.4-2.16l2.16-1.62c0.54,1.08,2.16,1.62,3.24,1.62
		c1.62,0,2.7-0.54,2.7-2.7c0-1.62-1.62-1.62-3.24-2.7c-2.16-0.54-4.32-1.08-4.32-4.32c0-3.24,3.24-4.32,5.94-4.32
		c1.62,0,3.24,0.54,4.32,1.62L139.27,462.78z"/>
	<path class="st0" d="M155.47,463.32c-1.08-1.08-2.16-1.62-3.78-1.62c-3.24,0-5.4,2.7-5.4,5.94s2.16,5.4,5.4,5.4
		c1.62,0,3.24-0.54,3.78-1.62l2.16,1.62c-1.08,1.62-3.24,2.7-5.94,2.7c-4.86,0-8.64-3.24-8.64-8.1c0-5.4,3.78-8.1,8.64-8.1
		c2.16,0,4.32,0.54,5.94,2.16L155.47,463.32z"/>
	<path class="st0" d="M167.9,469.27l-2.7-6.48l-2.16,6.48H167.9z M164.12,459.54h2.7l6.48,15.66h-3.24l-1.62-3.24h-6.48l-1.62,3.24
		h-3.24L164.12,459.54z"/>
	<path class="st0" d="M179.78,466.56c1.62,0,3.24-0.54,3.24-2.16c0-2.16-1.62-2.16-3.24-2.16h-2.16v4.32H179.78z M174.92,459.54h5.4
		c3.24,0,5.94,1.62,5.94,4.86c0,3.24-3.24,4.32-6.48,4.32h-2.16v6.48h-2.7V459.54z"/>
	<path class="st0" d="M195.45,469.27l-2.16-6.48l-2.7,6.48H195.45z M192.2,459.54h2.16l7.02,15.66h-3.24l-1.62-3.24h-6.48
		l-1.62,3.24h-3.24L192.2,459.54z"/>
	<path class="st0" d="M213.81,463.32c-1.08-1.08-2.16-1.62-3.78-1.62c-3.24,0-5.4,2.7-5.4,5.94s2.16,5.4,5.4,5.4
		c1.62,0,3.24-0.54,3.78-1.62l2.16,1.62c-1.08,1.62-3.24,2.7-5.94,2.7c-4.86,0-8.1-3.24-8.1-8.1c0-5.4,3.24-8.1,8.1-8.1
		c2.16,0,4.86,0.54,5.94,2.16L213.81,463.32z"/>
	<polygon class="st0" points="218.13,459.54 220.83,459.54 220.83,475.21 218.13,475.21 	"/>
	<path class="st0" d="M229.48,473.05c2.7,0,5.94-1.08,5.94-5.4c0-4.86-3.24-5.4-5.94-5.4h-2.7v10.8H229.48z M224.07,459.54h5.94
		c3.78,0,8.64,2.16,8.64,8.1c0,5.4-4.86,7.56-8.64,7.56h-5.94V459.54z"/>
	<path class="st0" d="M248.92,469.27l-2.16-6.48l-2.7,6.48H248.92z M245.68,459.54h2.16l7.02,15.66h-3.24l-1.62-3.24h-6.48
		l-1.62,3.24h-3.24L245.68,459.54z"/>
	<path class="st0" d="M261.34,473.05c3.24,0,6.48-1.08,6.48-5.4c0-4.86-3.24-5.4-6.48-5.4h-2.16v10.8H261.34z M256.48,459.54h5.4
		c4.32,0,8.64,2.16,8.64,8.1c0,5.4-4.32,7.56-8.64,7.56h-5.4V459.54z"/>
	<polygon class="st0" points="278.63,459.54 281.87,459.54 281.87,475.21 278.63,475.21 	"/>
	<polygon class="st0" points="285.11,459.54 288.89,459.54 295.91,471.43 295.91,471.43 295.91,459.54 299.16,459.54 299.16,475.21 
		295.37,475.21 287.81,463.32 287.81,463.32 287.81,475.21 285.11,475.21 	"/>
	<polygon class="st0" points="305.64,462.24 300.78,462.24 300.78,459.54 313.2,459.54 313.2,462.24 308.34,462.24 308.34,475.21 
		305.64,475.21 	"/>
	<polygon class="st0" points="314.82,459.54 325.62,459.54 325.62,462.24 318.06,462.24 318.06,466.02 325.08,466.02 325.08,468.73 
		318.06,468.73 318.06,473.05 326.16,473.05 326.16,475.21 314.82,475.21 	"/>
	<polygon class="st0" points="328.86,459.54 331.57,459.54 331.57,473.05 338.05,473.05 338.05,475.21 328.86,475.21 	"/>
	<polygon class="st0" points="340.21,459.54 350.47,459.54 350.47,462.24 342.91,462.24 342.91,466.02 349.93,466.02 349.93,468.73 
		342.91,468.73 342.91,473.05 351.01,473.05 351.01,475.21 340.21,475.21 	"/>
	<path class="st0" d="M365.06,463.32c-1.08-1.08-2.7-1.62-3.78-1.62c-3.24,0-5.4,2.7-5.4,5.94s2.16,5.4,5.4,5.4
		c1.62,0,2.7-0.54,3.78-1.62l2.16,1.62c-1.08,1.62-3.24,2.7-5.94,2.7c-4.86,0-8.64-3.24-8.64-8.1c0-5.4,3.78-8.1,8.64-8.1
		c2.16,0,4.32,0.54,5.94,2.16L365.06,463.32z"/>
	<polygon class="st0" points="372.08,462.24 367.22,462.24 367.22,459.54 379.64,459.54 379.64,462.24 374.78,462.24 374.78,475.21 
		372.08,475.21 	"/>
	<path class="st0" d="M394.22,469.81c0,3.78-2.7,5.94-6.48,5.94c-3.78,0-6.48-2.16-6.48-5.94v-10.26h2.7v10.26
		c0,1.62,1.08,3.24,3.78,3.24c2.7,0,3.24-1.62,3.24-3.24v-10.26h3.24V469.81z"/>
	<path class="st0" d="M405.57,469.27l-2.7-6.48l-2.16,6.48H405.57z M401.79,459.54h2.7l6.48,15.66h-3.24l-1.08-3.24h-7.02
		l-1.08,3.24h-3.24L401.79,459.54z"/>
	<polygon class="st0" points="412.59,459.54 415.29,459.54 415.29,473.05 422.31,473.05 422.31,475.21 412.59,475.21 	"/>
	<polygon class="st0" points="56.08,500.05 56.08,500.05 61.49,486.55 63.11,486.55 57.16,502.22 55.54,502.22 49.6,486.55 
		51.22,486.55 	"/>
	<path class="st0" d="M66.89,496.27h7.02l-3.78-8.1L66.89,496.27z M64.73,502.22h-2.16l7.02-15.66h1.62l6.48,15.66h-1.62l-1.62-4.32
		h-8.1L64.73,502.22z"/>
	<polygon class="st0" points="82.01,500.6 89.03,500.6 89.03,502.22 80.39,502.22 80.39,486.55 82.01,486.55 	"/>
	<polygon class="st0" points="93.36,500.6 100.38,500.6 100.38,502.22 91.73,502.22 91.73,486.55 93.36,486.55 	"/>
	<polygon class="st0" points="104.7,500.6 112.8,500.6 112.8,502.22 103.08,502.22 103.08,486.55 112.8,486.55 112.8,487.63 
		104.7,487.63 104.7,493.03 112.26,493.03 112.26,494.65 104.7,494.65 	"/>
	<path class="st0" d="M123.06,500.6h3.24c4.86,0,7.02-3.24,7.02-6.48s-2.16-6.48-7.02-6.48h-3.24V500.6z M121.44,486.55h5.4
		c3.78,0,8.1,2.7,8.1,7.56c0,5.4-4.32,8.1-8.1,8.1h-5.4V486.55z"/>
	<polygon class="st0" points="139.81,500.6 148.45,500.6 148.45,502.22 138.19,502.22 138.19,486.55 147.91,486.55 147.91,487.63 
		139.81,487.63 139.81,493.03 147.37,493.03 147.37,494.65 139.81,494.65 	"/>
	<polygon class="st0" points="158.71,500.6 166.28,500.6 166.28,502.22 157.09,502.22 157.09,486.55 158.71,486.55 	"/>
	<polygon class="st0" points="170.06,500.6 178.7,500.6 178.7,502.22 168.44,502.22 168.44,486.55 178.16,486.55 178.16,487.63 
		170.06,487.63 170.06,493.03 177.62,493.03 177.62,494.65 170.06,494.65 	"/>
	<path class="st0" d="M194.91,499.51c-1.08,1.62-3.24,3.24-5.94,3.24c-4.86,0-8.1-3.78-8.1-8.64c0-4.86,3.24-8.1,8.1-8.1
		c2.16,0,4.32,1.08,5.4,2.7l-1.08,0.54c-0.54-1.08-2.16-1.62-4.32-1.62c-4.32,0-6.48,2.7-6.48,6.48c0,3.78,2.16,7.02,6.48,7.02
		c1.62,0,3.78-0.54,4.86-2.16L194.91,499.51z"/>
	<path class="st0" d="M199.23,493.57h2.7c2.7,0,3.78-1.08,3.78-3.24c0-1.62-1.08-2.7-3.78-2.7h-2.7V493.57z M199.23,502.22h-1.62
		v-15.66h4.32c3.24,0,5.4,1.08,5.4,3.78c0,2.7-1.62,3.78-3.78,4.32l4.86,7.56h-2.16l-4.32-7.56h-2.7V502.22z"/>
	<path class="st0" d="M212.73,502.22h-1.62v-15.66h1.62V502.22z M212.19,484.93h-1.08l2.16-3.24h1.62L212.19,484.93z"/>
	<polygon class="st0" points="227.85,499.51 227.85,499.51 227.85,486.55 229.48,486.55 229.48,502.22 227.31,502.22 218.13,488.71 
		218.13,488.71 218.13,502.22 216.51,502.22 216.51,486.55 218.67,486.55 	"/>
</g>
<g>
	<path class="st1" d="M90.65,167.86c-5.94,5.94-13.5,13.5-19.45,19.99c-7.56,7.56-8.64,17.83,0,26.47s22.15,22.15,39.43,39.43
		c32.95,32.95,78.86,25.93,105.33-0.54c0,0-72.38-71.84-85.89-85.35C117.12,154.89,104.16,154.89,90.65,167.86z"/>
	<path class="st1" d="M296.46,112.76c5.94,5.94,13.5,13.5,19.99,19.45c7.02,7.56,8.1,17.83,0,26.47
		c-9.18,9.18-22.69,22.69-39.97,39.43c-32.41,32.95-78.86,25.93-105.33,0c0,0,72.38-72.38,85.89-85.35
		C269.99,99.26,282.95,99.26,296.46,112.76z"/>
	<path class="st1" d="M165.2,111.14c15.12,0,27.55,12.42,27.55,27.55c0,15.66-12.42,28.09-27.55,28.09
		c-15.66,0-28.09-12.42-28.09-28.09C137.11,123.56,149.53,111.14,165.2,111.14z"/>
</g>
<g>
	<path class="st1" d="M302.94,370.96c0,5.94,1.08,10.26,3.24,13.5c2.16,3.78,5.94,5.4,12.42,5.4c2.7,0,5.4-0.54,8.64-1.08
		c2.7-0.54,5.4-1.62,7.02-2.7v24.31c-3.24,1.62-6.48,2.16-11.34,2.7c-4.32,0.54-8.1,1.08-11.34,1.08c-7.56,0-14.04-1.08-18.91-2.7
		c-4.86-1.62-8.64-4.32-11.34-7.56c-2.7-3.24-4.86-7.56-5.94-12.96c-1.08-4.86-1.62-10.8-1.62-17.29V229.98h29.17V370.96z"/>
	<path class="st1" d="M407.73,331.53c-3.78-7.56-9.18-12.42-15.66-14.58c-7.02-2.16-14.04-1.62-22.69,2.7
		c-7.56,3.24-12.96,8.64-15.12,15.12c-2.7,6.48-2.7,14.04,0,22.15L407.73,331.53z M363.43,376.36c4.32,7.02,10.26,11.88,17.83,14.04
		c7.02,1.62,14.58,1.08,21.61-2.7c6.48-3.24,11.34-7.02,14.58-11.34c3.24-4.86,5.4-10.26,7.02-15.66l25.39,5.4
		c-2.7,10.26-7.02,18.91-12.96,25.39c-5.94,6.48-13.5,11.88-21.61,15.66c-7.56,3.78-15.66,5.94-23.77,6.48
		c-8.1,1.08-16.2,0-23.23-2.16c-7.56-2.7-14.04-6.48-19.99-11.88c-6.48-5.4-11.34-11.88-15.12-20.53c-3.78-8.1-5.94-16.2-5.94-24.31
		c-0.54-8.1,1.08-15.66,3.78-22.69c2.7-7.02,7.02-13.5,12.96-19.45c5.4-5.94,12.42-10.8,19.99-14.58c7.56-3.24,14.58-4.86,21.61-5.4
		c7.56-0.54,14.04,1.08,20.53,3.78c6.48,2.7,12.96,7.02,18.37,12.96c5.94,5.94,10.8,13.5,15.12,22.69l3.24,7.02L363.43,376.36z"/>
	<path class="st1" d="M239.74,359.07h-6.48c-18.37,0-43.75,2.16-43.75,18.91c0,11.34,10.26,14.58,19.99,14.58
		c19.45,0,30.25-11.34,30.25-29.17V359.07z M240.28,396.88h-1.08c-5.4,9.72-18.91,17.29-35.11,17.29
		c-18.37,0-43.21-8.64-43.21-35.65c0-34.03,43.21-38.89,78.86-38.89v-2.7c0-14.04-11.88-21.07-26.47-21.07
		c-11.88,0-23.77,5.94-30.79,13.5l-15.12-17.83c12.96-11.88,30.79-17.83,48.61-17.83c40.51,0,50.77,25.39,50.77,48.07v69.68h-26.47
		V396.88z"/>
	<polygon class="st1" points="49.6,296.95 110.64,414.71 111.18,414.71 171.68,296.95 141.43,296.95 111.18,361.77 110.64,361.77 
		80.39,296.95 	"/>
</g>
</svg>
